<svg width="185" height="37" viewBox="0 0 185 37" fill="none" xmlns="http://www.w3.org/2000/svg">
<path d="M5.94141 26.668C5.47266 26.668 5.10352 26.5156 4.83398 26.2109C4.56445 25.918 4.42969 25.5547 4.42969 25.1211C4.42969 24.7812 4.48828 24.4531 4.60547 24.1367C4.72266 23.8203 4.875 23.5273 5.0625 23.2578L12.2871 8.89648C12.8965 7.94727 13.5 7.30859 14.0977 6.98047C14.707 6.64063 15.1758 6.4707 15.5039 6.4707C16.0312 6.4707 16.4062 6.62305 16.6289 6.92773C16.8516 7.23242 16.9629 7.5957 16.9629 8.01758C16.9629 8.70898 16.7461 9.42383 16.3125 10.1621C15.9375 10.8535 15.5156 11.627 15.0469 12.4824C14.5781 13.3262 13.9219 14.4922 13.0781 15.9805C12.293 17.3398 11.4961 18.6582 10.6875 19.9355C9.89062 21.2012 9.11719 22.3438 8.36719 23.3633C10.2188 23.1758 11.9883 22.5781 13.6758 21.5703C15.3633 20.5625 16.8516 19.332 18.1406 17.8789C19.418 16.4492 20.4141 14.9375 21.1289 13.3438C21.8555 11.7383 22.2188 10.2617 22.2188 8.91406C22.2188 7.34375 21.8262 6.05469 21.041 5.04688C20.2559 4.03906 19.043 3.53516 17.4023 3.53516C16.3945 3.53516 15.3809 3.6582 14.3613 3.9043C13.3535 4.15039 12.4219 4.48438 11.5664 4.90625C10.7109 5.31641 10.002 5.7793 9.43945 6.29492C8.90039 6.88086 8.48438 7.39062 8.19141 7.82422C7.91016 8.25781 7.56445 8.72656 7.1543 9.23047C6.80273 9.64062 6.42773 9.97461 6.0293 10.2324C5.63086 10.4902 5.16211 10.6191 4.62305 10.6191C3.61523 10.6191 3.11133 10.1738 3.11133 9.2832C3.11133 8.42773 3.50391 7.50195 4.28906 6.50586C5.08594 5.50977 6.1582 4.56641 7.50586 3.67578C8.8418 2.79688 10.3945 2.07031 12.1641 1.49609C13.9336 0.921875 15.7676 0.634766 17.666 0.634766C19.6816 0.634766 21.3398 1.02148 22.6406 1.79492C23.9531 2.55664 24.9258 3.59375 25.5586 4.90625C26.2031 6.21875 26.5254 7.68359 26.5254 9.30078C26.5254 10.9297 26.1562 12.6465 25.418 14.4512C24.6914 16.2441 23.6191 17.9609 22.2012 19.6016C20.7949 21.2305 19.0781 22.6309 17.0508 23.8027C15.5273 24.6816 13.834 25.3789 11.9707 25.8945C10.1074 26.4102 8.09766 26.668 5.94141 26.668ZM28.9863 26.4395C28.5176 26.4395 27.9844 26.3105 27.3867 26.0527C26.8008 25.8066 26.291 25.4082 25.8574 24.8574C25.4238 24.3066 25.207 23.5801 25.207 22.6777C25.207 21.9512 25.377 21.0605 25.7168 20.0059C26.0684 18.9512 26.6016 17.9082 27.3164 16.877C28.043 15.834 28.9746 14.9668 30.1113 14.2754C31.248 13.5723 32.5664 13.2207 34.0664 13.2207C34.6641 13.2207 35.2969 13.332 35.9648 13.5547C36.6445 13.7773 37.2246 14.1523 37.7051 14.6797C38.1855 15.1953 38.4258 15.9102 38.4258 16.8242C38.4258 17.5742 38.2383 18.4473 37.8633 19.4434C38.0742 19.7012 38.373 19.8301 38.7598 19.8301C39.123 19.8301 39.5449 19.6836 40.0254 19.3906C40.5059 19.0977 40.9805 18.7402 41.4492 18.3184C41.9297 17.8965 42.3633 17.4746 42.75 17.0527C43.1484 16.6309 43.459 16.291 43.6816 16.0332C43.7637 15.9512 43.8633 15.9102 43.9805 15.9102C44.2383 15.9102 44.4258 16.0742 44.543 16.4023C44.6602 16.7305 44.6367 17.1465 44.4727 17.6504C44.3086 18.1426 43.9277 18.6523 43.3301 19.1797C42.9785 19.5547 42.5449 20.0176 42.0293 20.5684C41.5254 21.1074 40.9746 21.5879 40.377 22.0098C39.791 22.4199 39.1934 22.625 38.584 22.625C37.9629 22.625 37.377 22.4258 36.8262 22.0273C35.959 23.3867 34.8574 24.4648 33.5215 25.2617C32.1855 26.0469 30.6738 26.4395 28.9863 26.4395ZM30.5156 23.3633C31.2539 23.3633 31.9453 23.1172 32.5898 22.625C33.2344 22.1328 33.7559 21.5117 34.1543 20.7617C34.5527 20.0117 34.752 19.2441 34.752 18.459C34.752 18.1543 34.7168 17.8379 34.6465 17.5098C34.5879 17.1699 34.4473 16.8887 34.2246 16.666C34.002 16.4316 33.6445 16.3145 33.1523 16.3145C32.4258 16.3145 31.7402 16.5488 31.0957 17.0176C30.4512 17.4746 29.9238 18.0723 29.5137 18.8105C29.1152 19.5371 28.916 20.2988 28.916 21.0957C28.916 21.3887 28.9512 21.7168 29.0215 22.0801C29.0918 22.4316 29.2383 22.7363 29.4609 22.9941C29.6953 23.2402 30.0469 23.3633 30.5156 23.3633ZM43.8926 26.4395C43.4238 26.4395 42.8906 26.3105 42.293 26.0527C41.707 25.8066 41.1973 25.4082 40.7637 24.8574C40.3301 24.3066 40.1133 23.5801 40.1133 22.6777C40.1133 21.9512 40.2832 21.0605 40.623 20.0059C40.9746 18.9512 41.5078 17.9082 42.2227 16.877C42.9492 15.834 43.8809 14.9668 45.0176 14.2754C46.1543 13.5723 47.4727 13.2207 48.9727 13.2207C49.5703 13.2207 50.2031 13.332 50.8711 13.5547C51.5508 13.7773 52.1309 14.1523 52.6113 14.6797C53.0918 15.1953 53.332 15.9102 53.332 16.8242C53.332 17.5742 53.1445 18.4473 52.7695 19.4434C52.9805 19.7012 53.2793 19.8301 53.666 19.8301C54.0293 19.8301 54.4512 19.6836 54.9316 19.3906C55.4121 19.0977 55.8867 18.7402 56.3555 18.3184C56.8359 17.8965 57.2695 17.4746 57.6562 17.0527C58.0547 16.6309 58.3652 16.291 58.5879 16.0332C58.6699 15.9512 58.7695 15.9102 58.8867 15.9102C59.1445 15.9102 59.332 16.0742 59.4492 16.4023C59.5664 16.7305 59.543 17.1465 59.3789 17.6504C59.2148 18.1426 58.834 18.6523 58.2363 19.1797C57.8848 19.5547 57.4512 20.0176 56.9355 20.5684C56.4316 21.1074 55.8809 21.5879 55.2832 22.0098C54.6973 22.4199 54.0996 22.625 53.4902 22.625C52.8691 22.625 52.2832 22.4258 51.7324 22.0273C50.8652 23.3867 49.7637 24.4648 48.4277 25.2617C47.0918 26.0469 45.5801 26.4395 43.8926 26.4395ZM45.4219 23.3633C46.1602 23.3633 46.8516 23.1172 47.4961 22.625C48.1406 22.1328 48.6621 21.5117 49.0605 20.7617C49.459 20.0117 49.6582 19.2441 49.6582 18.459C49.6582 18.1543 49.623 17.8379 49.5527 17.5098C49.4941 17.1699 49.3535 16.8887 49.1309 16.666C48.9082 16.4316 48.5508 16.3145 48.0586 16.3145C47.332 16.3145 46.6465 16.5488 46.002 17.0176C45.3574 17.4746 44.8301 18.0723 44.4199 18.8105C44.0215 19.5371 43.8223 20.2988 43.8223 21.0957C43.8223 21.3887 43.8574 21.7168 43.9277 22.0801C43.998 22.4316 44.1445 22.7363 44.3672 22.9941C44.6016 23.2402 44.9531 23.3633 45.4219 23.3633ZM58.3066 26.4395C57.4512 26.4395 56.7422 26.1992 56.1797 25.7188C55.6172 25.2266 55.3359 24.4121 55.3359 23.2754C55.3359 21.834 55.6582 20.4863 56.3027 19.2324C56.9473 17.9785 57.7617 16.9062 58.7461 16.0156C59.7188 15.125 60.7441 14.4395 61.8223 13.959C62.9121 13.4668 63.8848 13.2207 64.7402 13.2207C65.4316 13.2207 66.0059 13.332 66.4629 13.5547C66.7207 13.6953 66.9375 13.8535 67.1133 14.0293L67.2539 13.7305L67.5703 12.9922L67.7637 12.5527C67.7871 12.459 67.9395 12.084 68.2207 11.4277C68.502 10.7715 68.877 9.88672 69.3457 8.77344C69.7793 7.74219 70.1367 6.86914 70.418 6.1543C70.6992 5.42773 70.8457 5.04102 70.8574 4.99414C71.0215 4.4082 71.2969 3.88672 71.6836 3.42969C72.0703 2.97266 72.5918 2.74414 73.248 2.74414C73.6934 2.74414 74.0625 2.84375 74.3555 3.04297C74.6484 3.23047 74.7949 3.59961 74.7949 4.15039C74.7949 4.57227 74.7012 5.02344 74.5137 5.50391C74.3262 5.98437 74.1621 6.41211 74.0215 6.78711C73.459 7.91211 72.8496 9.16016 72.1934 10.5312C71.5488 11.9023 70.9043 13.3086 70.2598 14.75C69.6152 16.1914 69.0059 17.5801 68.4316 18.916C67.8574 20.2402 67.3594 21.4121 66.9375 22.4316C66.9258 22.4434 66.9199 22.4727 66.9199 22.5195C66.9199 22.5664 66.9141 22.5957 66.9023 22.6074C66.9023 22.8184 66.9551 23.041 67.0605 23.2754C67.166 23.498 67.3359 23.6094 67.5703 23.6094C67.6406 23.6094 67.7109 23.5977 67.7812 23.5742C68.6484 23.3164 69.5391 22.8652 70.4531 22.2207C71.3672 21.5762 72.2109 20.8848 72.9844 20.1465C73.7695 19.3965 74.3965 18.7402 74.8652 18.1777C75.0293 17.9785 75.2109 17.8789 75.4102 17.8789C75.5859 17.8789 75.7383 17.9609 75.8672 18.125C76.0078 18.2891 76.0781 18.5117 76.0781 18.793C76.0781 19.0156 76.0137 19.2793 75.8848 19.584C75.7676 19.8887 75.5684 20.2168 75.2871 20.5684C74.373 21.5762 73.4238 22.5312 72.4395 23.4336C71.4551 24.3242 70.4707 25.0508 69.4863 25.6133C68.502 26.1641 67.541 26.4395 66.6035 26.4395C65.748 26.4395 65.0742 26.1992 64.582 25.7188C64.0898 25.2266 63.8438 24.4941 63.8438 23.5215V23.3281C63.8438 23.2461 63.8496 23.1875 63.8613 23.1523C63.3223 24.125 62.5137 24.916 61.4355 25.5254C60.3691 26.1348 59.3262 26.4395 58.3066 26.4395ZM59.6074 23.3281C60.3223 23.3281 61.002 23.1113 61.6465 22.6777C62.291 22.2441 62.8828 21.6875 63.4219 21.0078C63.9609 20.3281 64.4297 19.6191 64.8281 18.8809C65.2383 18.1426 65.5723 17.4688 65.8301 16.8594L66.0762 16.3145L66.4102 15.5586C65.7188 15.5703 64.9805 15.7227 64.1953 16.0156C62.8477 16.4727 61.6699 17.2812 60.6621 18.4414C59.666 19.5898 59.1152 20.9844 59.0098 22.625C59.0098 23.0938 59.209 23.3281 59.6074 23.3281ZM74.8125 26.4395C73.8516 26.4395 73.1895 26.1992 72.8262 25.7188C72.4746 25.2383 72.2988 24.6523 72.2988 23.9609C72.2988 23.3867 72.3809 22.8008 72.5449 22.2031C72.7207 21.5938 72.9258 21.0371 73.1602 20.5332C73.5703 19.6191 73.9863 18.7109 74.4082 17.8086C74.8301 16.9062 75.2168 16.0801 75.5684 15.3301L80.8945 3.99219C81.1641 3.40625 81.5684 3.02539 82.1074 2.84961C82.6465 2.67383 83.1387 2.69141 83.584 2.90234C84.041 3.10156 84.2695 3.4707 84.2695 4.00977C84.2695 4.2207 84.2168 4.44336 84.1113 4.67773C84.0176 4.91211 83.8945 5.16406 83.7422 5.43359C83.3203 6.23047 82.7812 7.2793 82.125 8.58008C81.4805 9.88086 80.7656 11.3457 79.9805 12.9746C79.125 14.7676 78.4043 16.2734 77.8184 17.4922C77.2441 18.6992 76.7051 19.8418 76.2012 20.9199C76.0723 21.1895 75.9434 21.5059 75.8145 21.8691C75.6973 22.2207 75.6387 22.5371 75.6387 22.8184C75.6387 23.2051 75.8086 23.3984 76.1484 23.3984C76.5234 23.3984 77.0215 23.2461 77.6426 22.9414C78.2754 22.625 78.9316 22.2324 79.6113 21.7637C80.3027 21.3066 80.9707 20.832 81.6152 20.3398C82.2598 19.8359 82.8574 19.3496 83.4082 18.8809C83.5957 18.7285 83.8184 18.6523 84.0762 18.6523C84.6152 18.6523 84.8848 18.9512 84.8848 19.5488C84.8848 19.7949 84.8027 20.0703 84.6387 20.375C84.4746 20.6797 84.1875 20.9785 83.7773 21.2715C83.0273 21.9629 82.2715 22.6191 81.5098 23.2402C80.7598 23.8496 80.0039 24.3945 79.2422 24.875C78.4922 25.3438 77.7422 25.7188 76.9922 26C76.2422 26.293 75.5156 26.4395 74.8125 26.4395ZM85.623 26.4395C84.6855 26.4395 83.8828 26.2109 83.2148 25.7539C82.5586 25.2852 82.0547 24.6758 81.7031 23.9258C81.3633 23.1641 81.1934 22.3496 81.1934 21.4824C81.1934 20.7207 81.4102 19.8711 81.8438 18.9336C82.2891 17.9844 82.9219 17.0762 83.7422 16.209C84.5625 15.3418 85.541 14.627 86.6777 14.0645C87.8262 13.4902 89.0742 13.2031 90.4219 13.2031C91.3945 13.2031 92.1211 13.4375 92.6016 13.9062C93.082 14.375 93.3223 15.0254 93.3223 15.8574C93.3223 16.3496 93.1934 16.8652 92.9355 17.4043C92.6777 17.9434 92.2324 18.4883 91.5996 19.0391C90.9668 19.6016 90.1172 20.1758 89.0508 20.7617C87.9961 21.3359 86.6719 21.916 85.0781 22.502C85.207 23.2285 85.793 23.5918 86.8359 23.5918C87.6445 23.5918 88.5176 23.4277 89.4551 23.0996C90.3926 22.7598 91.2949 22.373 92.1621 21.9395C93.0293 21.5176 93.7734 21.1191 94.3945 20.7441C95.0156 20.3691 95.3848 20.1582 95.502 20.1113C95.6074 20.041 95.7012 20 95.7832 19.9883C95.877 19.9766 95.959 19.9707 96.0293 19.9707C96.3105 19.9707 96.5039 20.082 96.6094 20.3047C96.7266 20.5156 96.7852 20.6914 96.7852 20.832C96.7852 20.9375 96.7734 21.0664 96.75 21.2188C96.7266 21.3594 96.6387 21.5234 96.4863 21.7109C96.334 21.8633 95.8887 22.1973 95.1504 22.7129C94.4121 23.2285 93.6211 23.7266 92.7773 24.207C91.7461 24.7812 90.5977 25.2969 89.332 25.7539C88.0664 26.2109 86.8301 26.4395 85.623 26.4395ZM84.8145 20.4805C85.5762 20.082 86.3496 19.6191 87.1348 19.0918C87.9316 18.5527 88.5352 18.1602 88.9453 17.9141C89.4961 17.5625 89.8594 17.252 90.0352 16.9824C90.2344 16.6895 90.334 16.4434 90.334 16.2441C90.334 16.0684 90.2754 15.9277 90.1582 15.8223C90.0527 15.7168 89.9297 15.6523 89.7891 15.6289L89.6309 15.6113H89.4727C88.8281 15.6113 88.2305 15.7988 87.6797 16.1738C87.1406 16.5371 86.6836 16.9941 86.3086 17.5449C85.9102 18.1191 85.5879 18.6582 85.3418 19.1621C85.1074 19.666 84.9316 20.1055 84.8145 20.4805ZM104.238 26.3516C102.809 26.3516 101.59 26.2344 100.582 26C99.5859 25.7773 98.7656 25.4668 98.1211 25.0684C97.4766 24.6816 97.0078 24.2363 96.7148 23.7324C96.4219 23.2168 96.2754 22.6777 96.2754 22.1152C96.2754 20.9082 96.8496 19.7422 97.998 18.6172C98.5488 18.0781 99.1992 17.5977 99.9492 17.1758C100.711 16.7539 101.549 16.4316 102.463 16.209C102.803 16.209 103.049 16.3496 103.201 16.6309C103.365 16.9004 103.447 17.2109 103.447 17.5625C103.447 17.9023 103.365 18.1719 103.201 18.3711C103.037 18.5586 102.662 18.7754 102.076 19.0215C101.42 19.3027 100.904 19.6426 100.529 20.041C100.154 20.4277 99.9668 20.8145 99.9668 21.2012C99.9668 21.6934 100.307 22.127 100.986 22.502C101.678 22.8652 102.803 23.0469 104.361 23.0469C105.439 23.0469 106.43 22.877 107.332 22.5371C108.246 22.1973 108.979 21.7344 109.529 21.1484C110.08 20.5508 110.355 19.877 110.355 19.127C110.355 18.7051 110.18 18.2656 109.828 17.8086C109.477 17.3516 108.92 16.877 108.158 16.3848C107.479 15.9395 106.881 15.541 106.365 15.1895C105.861 14.8379 105.439 14.5273 105.1 14.2578L103.799 13.2383C102.92 12.4648 102.264 11.7207 101.83 11.0059C101.396 10.291 101.18 9.54688 101.18 8.77344C101.18 7.71875 101.549 6.70508 102.287 5.73242C103.025 4.74805 103.975 3.86914 105.135 3.0957C106.295 2.33398 107.531 1.73633 108.844 1.30273C110.156 0.857422 111.369 0.634766 112.482 0.634766C113.631 0.634766 114.586 0.904297 115.348 1.44336C116.121 1.98242 116.508 2.85547 116.508 4.0625C116.508 5.85547 115.488 7.4375 113.449 8.80859C112.992 9.125 112.57 9.2832 112.184 9.2832C111.785 9.2832 111.469 9.14258 111.234 8.86133C111 8.56836 110.883 8.22852 110.883 7.8418C110.883 7.51367 110.977 7.18555 111.164 6.85742C111.363 6.5293 111.68 6.24805 112.113 6.01367C112.453 5.83789 112.752 5.60352 113.01 5.31055C113.279 5.00586 113.414 4.71289 113.414 4.43164C113.414 4.16211 113.32 3.98633 113.133 3.9043C112.957 3.82227 112.74 3.78125 112.482 3.78125C111.756 3.78125 110.941 3.91016 110.039 4.16797C109.137 4.42578 108.275 4.77734 107.455 5.22266C106.588 5.69141 105.896 6.20117 105.381 6.75195C104.877 7.30273 104.625 7.84766 104.625 8.38672C104.625 8.89062 104.83 9.35352 105.24 9.77539C105.662 10.1973 106.254 10.6895 107.016 11.252L111.129 14.293C112.137 15.043 112.945 15.7812 113.555 16.5078C114.164 17.2227 114.469 18.002 114.469 18.8457C114.469 20.0879 114.041 21.2832 113.186 22.4316C112.342 23.5801 111.152 24.5234 109.617 25.2617C108.094 25.9883 106.301 26.3516 104.238 26.3516ZM119.76 36.4414C119.08 36.4414 118.494 36.2363 118.002 35.8262C117.521 35.4277 117.281 34.8945 117.281 34.2266C117.281 33.8984 117.299 33.6289 117.334 33.418C117.369 33.2188 117.457 32.9668 117.598 32.6621C117.738 32.3574 117.967 31.8887 118.283 31.2559L121.271 25.3496C120.896 25.6895 120.504 25.9531 120.094 26.1406C119.695 26.3398 119.273 26.4395 118.828 26.4395C117.691 26.4395 116.859 26.0117 116.332 25.1562C115.816 24.2891 115.559 23.3105 115.559 22.2207C115.559 20.7559 115.875 19.4492 116.508 18.3008C117.141 17.1523 117.926 16.1973 118.863 15.4355C119.777 14.6973 120.686 14.1465 121.588 13.7832C122.49 13.4082 123.223 13.2207 123.785 13.2207C124.277 13.2207 124.699 13.3027 125.051 13.4668C125.414 13.6309 125.713 13.8125 125.947 14.0117C126.229 14.2344 126.457 14.498 126.633 14.8027L127.178 14.3281C127.33 14.1992 127.482 14.0879 127.635 13.9941C127.799 13.8887 127.939 13.8359 128.057 13.8359C128.443 13.8359 128.742 13.9531 128.953 14.1875C129.176 14.4102 129.287 14.6914 129.287 15.0312C129.287 15.3125 129.211 15.5996 129.059 15.8926L121.588 30.6406L121.201 31.4844C121.049 31.7891 120.973 32.0703 120.973 32.3281C120.973 32.5977 121.102 32.7324 121.359 32.7324C121.605 32.7324 121.898 32.5098 122.238 32.0645C122.578 31.6309 122.947 31.0566 123.346 30.3418C123.744 29.627 124.143 28.8594 124.541 28.0391C124.904 27.3008 125.262 26.5332 125.613 25.7363C125.977 24.9277 126.311 24.1895 126.615 23.5215C126.92 22.8535 127.166 22.3555 127.354 22.0273C127.693 21.6055 128.15 21.1953 128.725 20.7969C129.311 20.3984 129.932 20.0059 130.588 19.6191C131.244 19.2324 131.854 18.8516 132.416 18.4766C132.58 18.4062 132.721 18.3711 132.838 18.3711C133.072 18.3711 133.248 18.4883 133.365 18.7227C133.494 18.9453 133.559 19.2266 133.559 19.5664C133.559 20 133.447 20.4688 133.225 20.9727C133.014 21.4648 132.68 21.8281 132.223 22.0625L129.744 23.5742C129.404 23.8203 129.041 24.3535 128.654 25.1738C128.279 25.9824 127.893 26.8848 127.494 27.8809C127.107 28.877 126.721 29.7734 126.334 30.5703C125.842 31.5781 125.285 32.5273 124.664 33.418C124.043 34.3203 123.328 35.0469 122.52 35.5977C121.723 36.1602 120.803 36.4414 119.76 36.4414ZM119.619 23.3281C120.428 23.3281 121.295 22.8301 122.221 21.834C123.146 20.8262 124.213 19.2734 125.42 17.1758C125.35 16.9766 125.215 16.7715 125.016 16.5605C124.863 16.3965 124.664 16.25 124.418 16.1211C124.172 15.9922 123.861 15.9277 123.486 15.9277C122.584 15.9277 121.764 16.2441 121.025 16.877C120.299 17.5098 119.725 18.2891 119.303 19.2148C118.881 20.1289 118.67 21.0195 118.67 21.8867C118.67 22.4023 118.752 22.7715 118.916 22.9941C119.092 23.2168 119.326 23.3281 119.619 23.3281ZM132.996 26.4395C132.234 26.4395 131.549 26.2578 130.939 25.8945C130.342 25.5312 130.043 24.8457 130.043 23.8379C130.043 23.7559 130.078 23.5215 130.148 23.1348C130.23 22.748 130.371 22.2559 130.57 21.6582C130.816 20.9199 131.203 19.959 131.73 18.7754C132.258 17.5918 133.002 16.1562 133.963 14.4688C134.209 14.0234 134.49 13.707 134.807 13.5195C135.135 13.3203 135.486 13.2207 135.861 13.2207C136.236 13.2207 136.582 13.3145 136.898 13.502C137.215 13.6777 137.373 13.9355 137.373 14.2754C137.373 14.3926 137.355 14.5039 137.32 14.6094C137.238 14.8789 137.016 15.2949 136.652 15.8574C136.301 16.4199 135.902 17.082 135.457 17.8438C135.023 18.5586 134.631 19.3262 134.279 20.1465C133.939 20.9668 133.752 21.7402 133.717 22.4668C133.717 22.6777 133.775 22.8711 133.893 23.0469C134.01 23.2227 134.203 23.3105 134.473 23.3105C135.234 23.3105 135.955 23.1055 136.635 22.6953C137.326 22.2734 137.971 21.7461 138.568 21.1133C139.166 20.4688 139.699 19.7891 140.168 19.0742C140.637 18.3594 141.029 17.7031 141.346 17.1055C141.639 16.5781 141.896 16.0156 142.119 15.418C142.342 14.8086 142.605 14.2871 142.91 13.8535C143.215 13.4199 143.625 13.2031 144.141 13.2031C144.562 13.2031 144.896 13.3379 145.143 13.6074C145.389 13.877 145.512 14.1992 145.512 14.5742C145.512 14.8789 145.342 15.3711 145.002 16.0508C144.674 16.7188 144.305 17.4453 143.895 18.2305C143.461 19.0508 143.08 19.8887 142.752 20.7441C142.436 21.5879 142.277 22.3379 142.277 22.9941C142.277 23.416 142.535 23.627 143.051 23.627C143.836 23.627 144.855 23.2227 146.109 22.4141C146.695 22.0391 147.281 21.5938 147.867 21.0781C148.465 20.5625 148.992 20.0059 149.449 19.4082L149.625 21.7988C148.84 22.7012 147.891 23.5391 146.777 24.3125C145.676 25.0742 144.604 25.6484 143.561 26.0352C142.482 26.4453 141.58 26.5391 140.854 26.3164C140.127 26.0938 139.764 25.4375 139.764 24.3477C139.764 23.7969 139.857 23.1699 140.045 22.4668C139.646 23.0645 139.113 23.6738 138.445 24.2949C137.777 24.9043 136.986 25.4141 136.072 25.8242C135.17 26.2344 134.145 26.4395 132.996 26.4395ZM149.959 26.4395C149.561 26.4395 149.086 26.3281 148.535 26.1055C147.984 25.8828 147.498 25.5137 147.076 24.998C146.666 24.4824 146.461 23.791 146.461 22.9238C146.461 22.1973 146.625 21.2891 146.953 20.1992C147.281 19.1094 147.797 18.0371 148.5 16.9824C149.203 15.9043 150.1 15.0078 151.189 14.293C152.291 13.5781 153.562 13.2207 155.004 13.2207C155.52 13.2207 155.971 13.2852 156.357 13.4141C156.744 13.543 157.072 13.6836 157.342 13.8359C157.494 13.9297 157.635 14.0293 157.764 14.1348C157.904 14.2285 158.033 14.334 158.15 14.4512L158.766 14.1523C158.941 14.0703 159.123 14 159.311 13.9414C159.51 13.8711 159.68 13.8359 159.82 13.8359C160.266 13.8359 160.629 13.959 160.91 14.2051C161.191 14.4512 161.332 14.7207 161.332 15.0137C161.332 15.1074 161.326 15.1719 161.314 15.207C161.232 15.5352 161.08 15.9863 160.857 16.5605C160.646 17.1348 160.418 17.7734 160.172 18.4766C159.926 19.1562 159.715 19.8125 159.539 20.4453C159.375 21.0781 159.293 21.5996 159.293 22.0098C159.293 22.3613 159.352 22.6543 159.469 22.8887C159.586 23.1113 159.785 23.2227 160.066 23.2227C160.406 23.2227 160.863 23.0293 161.438 22.6426C162.012 22.2441 162.604 21.7754 163.213 21.2363C163.541 20.9434 163.881 20.6328 164.232 20.3047C164.584 19.9648 164.941 19.6074 165.305 19.2324C165.492 19.0801 165.674 19.0039 165.85 19.0039C166.084 19.0039 166.277 19.1211 166.43 19.3555C166.594 19.5781 166.676 19.8301 166.676 20.1113C166.676 20.4395 166.564 20.7148 166.342 20.9375C165.873 21.3711 165.393 21.834 164.9 22.3262C164.408 22.8184 163.729 23.4219 162.861 24.1367C162.088 24.7695 161.291 25.3145 160.471 25.7715C159.65 26.2168 158.912 26.4395 158.256 26.4395C157.436 26.4395 156.838 26.123 156.463 25.4902C156.088 24.8457 155.9 24.1602 155.9 23.4336C155.9 22.9062 155.977 22.4375 156.129 22.0273C155.648 22.6719 155.08 23.3398 154.424 24.0312C153.768 24.7109 153.059 25.2852 152.297 25.7539C151.535 26.2109 150.756 26.4395 149.959 26.4395ZM151.365 23.3457C151.74 23.3457 152.209 23.1055 152.771 22.625C153.346 22.1445 153.896 21.582 154.424 20.9375C155.01 20.2344 155.473 19.5957 155.812 19.0215C156.152 18.4473 156.322 18.0605 156.322 17.8613C156.322 17.416 156.064 17.0645 155.549 16.8066C155.033 16.5371 154.57 16.4023 154.16 16.4023C153.434 16.4023 152.742 16.6367 152.086 17.1055C151.441 17.5742 150.914 18.1777 150.504 18.916C150.094 19.6426 149.889 20.3984 149.889 21.1836C149.889 21.6406 149.971 22.1152 150.135 22.6074C150.311 23.0996 150.721 23.3457 151.365 23.3457ZM166.588 26.4395C165.732 26.4395 165.023 26.1992 164.461 25.7188C163.898 25.2266 163.617 24.4121 163.617 23.2754C163.617 21.834 163.939 20.4863 164.584 19.2324C165.229 17.9785 166.043 16.9062 167.027 16.0156C168 15.125 169.025 14.4395 170.104 13.959C171.193 13.4668 172.166 13.2207 173.021 13.2207C173.713 13.2207 174.287 13.332 174.744 13.5547C175.002 13.6953 175.219 13.8535 175.395 14.0293L175.535 13.7305L175.852 12.9922L176.045 12.5527C176.068 12.459 176.221 12.084 176.502 11.4277C176.783 10.7715 177.158 9.88672 177.627 8.77344C178.061 7.74219 178.418 6.86914 178.699 6.1543C178.98 5.42773 179.127 5.04102 179.139 4.99414C179.303 4.4082 179.578 3.88672 179.965 3.42969C180.352 2.97266 180.873 2.74414 181.529 2.74414C181.975 2.74414 182.344 2.84375 182.637 3.04297C182.93 3.23047 183.076 3.59961 183.076 4.15039C183.076 4.57227 182.982 5.02344 182.795 5.50391C182.607 5.98437 182.443 6.41211 182.303 6.78711C181.74 7.91211 181.131 9.16016 180.475 10.5312C179.83 11.9023 179.186 13.3086 178.541 14.75C177.896 16.1914 177.287 17.5801 176.713 18.916C176.139 20.2402 175.641 21.4121 175.219 22.4316C175.207 22.4434 175.201 22.4727 175.201 22.5195C175.201 22.5664 175.195 22.5957 175.184 22.6074C175.184 22.8184 175.236 23.041 175.342 23.2754C175.447 23.498 175.617 23.6094 175.852 23.6094C175.922 23.6094 175.992 23.5977 176.062 23.5742C176.93 23.3164 177.82 22.8652 178.734 22.2207C179.648 21.5762 180.492 20.8848 181.266 20.1465C182.051 19.3965 182.678 18.7402 183.146 18.1777C183.311 17.9785 183.492 17.8789 183.691 17.8789C183.867 17.8789 184.02 17.9609 184.148 18.125C184.289 18.2891 184.359 18.5117 184.359 18.793C184.359 19.0156 184.295 19.2793 184.166 19.584C184.049 19.8887 183.85 20.2168 183.568 20.5684C182.654 21.5762 181.705 22.5312 180.721 23.4336C179.736 24.3242 178.752 25.0508 177.768 25.6133C176.783 26.1641 175.822 26.4395 174.885 26.4395C174.029 26.4395 173.355 26.1992 172.863 25.7188C172.371 25.2266 172.125 24.4941 172.125 23.5215V23.3281C172.125 23.2461 172.131 23.1875 172.143 23.1523C171.604 24.125 170.795 24.916 169.717 25.5254C168.65 26.1348 167.607 26.4395 166.588 26.4395ZM167.889 23.3281C168.604 23.3281 169.283 23.1113 169.928 22.6777C170.572 22.2441 171.164 21.6875 171.703 21.0078C172.242 20.3281 172.711 19.6191 173.109 18.8809C173.52 18.1426 173.854 17.4688 174.111 16.8594L174.357 16.3145L174.691 15.5586C174 15.5703 173.262 15.7227 172.477 16.0156C171.129 16.4727 169.951 17.2812 168.943 18.4414C167.947 19.5898 167.396 20.9844 167.291 22.625C167.291 23.0938 167.49 23.3281 167.889 23.3281Z" fill="#916D54"/>
</svg>
